# xmcd CD database file
#
# Track frame offsets:
#	150
#	16872
#	35935
#	53075
#	67755
#	84895
#	103742
#	121477
#	137210
#	151815
#	167610
#	185832
#	205865
#	222167
#
# Disc length: 3212 seconds
#
# Revision: 1
# Processed by: cddbd v1.5.2PL0 Copyright (c) Steve Scherf et al.
# Submitted via: CDex 1.50beta10
#
DISCID=bd0c8a0e
DTITLE=Leonardo Acustico - Acustico
DYEAR=2006
DGENRE=Country
TTITLE0=Sábado de Festa
TTITLE1=Eu Juro
TTITLE2=Pareço um Menino
TTITLE3=Não Aprendi a Dizer Adeus (Ao Vivo)
TTITLE4=Quero Acender Teu Fogo
TTITLE5=Deu Medo
TTITLE6=Um Sonhador
TTITLE7=Entre Tapas e Beijos
TTITLE8=Meu Mel
TTITLE9=Cadê Você-Sonho Por Sonho-Não Olhe Assim
TTITLE10=Desculpe, Mas Eu Vou Chorar
TTITLE11=Temporal de Amor (Ao Vivo)
TTITLE12=Pense em Mim(Piense em Mim) (Ao Vivo)
TTITLE13=Sinhá Moça
EXTD=emerson@betim.mg.gov.br YEAR: 2006
EXTT0=
EXTT1=
EXTT2=
EXTT3=
EXTT4=
EXTT5=
EXTT6=
EXTT7=
EXTT8=
EXTT9=
EXTT10=
EXTT11=
EXTT12=
EXTT13=
PLAYORDER=
